<svg xmlns="http://www.w3.org/2000/svg" viewBox="0 0 820 460" preserveAspectRatio="xMidYMid slice"><defs><filter id="gr"><feTurbulence type="fractalNoise" baseFrequency="0.9" numOctaves="2" stitchTiles="stitch" result="n"/><feColorMatrix in="n" type="saturate" values="0"/><feComponentTransfer><feFuncA type="linear" slope="0.05"/></feComponentTransfer></filter><linearGradient id="sky" x1="0" y1="0" x2="0" y2="1"><stop offset="0" stop-color="#0c1626"/><stop offset="0.58" stop-color="#10243b"/><stop offset="0.6" stop-color="#0a1422"/><stop offset="1" stop-color="#070f1a"/></linearGradient><radialGradient id="sun" cx="0.62" cy="0.55" r="0.5"><stop offset="0" stop-color="#e0bd72" stop-opacity="0.55"/><stop offset="0.4" stop-color="#c89b4a" stop-opacity="0.18"/><stop offset="1" stop-color="#c89b4a" stop-opacity="0"/></radialGradient><linearGradient id="refl" x1="0" y1="0" x2="0" y2="1"><stop offset="0" stop-color="#e0bd72" stop-opacity="0.45"/><stop offset="1" stop-color="#e0bd72" stop-opacity="0"/></linearGradient></defs><rect width="820" height="460" fill="url(#sky)"/><rect width="820" height="460" fill="url(#sun)"/><circle cx="508" cy="244" r="34" fill="#e7c885" opacity="0.5"/><rect x="0" y="278" width="820" height="6" fill="#e0bd72" opacity="0.15"/><rect x="470" y="284" width="80" height="176" fill="url(#refl)"/><g stroke="#9fb0c4" stroke-opacity="0.12" stroke-width="1"><line x1="0" y1="320" x2="820" y2="320"/><line x1="0" y1="360" x2="820" y2="360"/><line x1="0" y1="404" x2="820" y2="404"/></g><g fill="#060d18"><path d="M150 284 L660 284 L636 312 L186 312 Z"/><rect x="566" y="252" width="58" height="34" rx="2"/><rect x="588" y="238" width="20" height="16"/></g><g stroke="#1d2c40" stroke-width="3" stroke-linecap="round"><line x1="250" y1="284" x2="250" y2="258"/><line x1="330" y1="284" x2="330" y2="256"/><line x1="410" y1="284" x2="410" y2="258"/><line x1="490" y1="284" x2="490" y2="256"/></g><line x1="150" y1="284" x2="660" y2="284" stroke="#c89b4a" stroke-opacity="0.35" stroke-width="1"/><rect width="820" height="460" filter="url(#gr)" opacity="0.5"/></svg>