<svg xmlns="http://www.w3.org/2000/svg" viewBox="0 0 820 460" preserveAspectRatio="xMidYMid slice"><defs><filter id="gr"><feTurbulence type="fractalNoise" baseFrequency="0.9" numOctaves="2" stitchTiles="stitch" result="n"/><feColorMatrix in="n" type="saturate" values="0"/><feComponentTransfer><feFuncA type="linear" slope="0.05"/></feComponentTransfer></filter><linearGradient id="dbg" x1="0" y1="0" x2="0" y2="1"><stop offset="0" stop-color="#0c1626"/><stop offset="1" stop-color="#070f1a"/></linearGradient><radialGradient id="dglow" cx="0.5" cy="1" r="0.7"><stop offset="0" stop-color="#c89b4a" stop-opacity="0.28"/><stop offset="1" stop-color="#c89b4a" stop-opacity="0"/></radialGradient></defs><rect width="820" height="460" fill="url(#dbg)"/><rect width="820" height="460" fill="url(#dglow)"/><ellipse cx="250" cy="150" rx="46" ry="70" fill="#9fb0c4" opacity="0.05"/><g fill="#0a1422" stroke="#c9d3df" stroke-opacity="0.32" stroke-width="1.4"><path d="M120 420 L120 332 Q120 318 168 318 Q216 318 216 332 L216 420 Z"/><path d="M470 420 L470 350 Q470 338 510 338 Q550 338 550 350 L550 420 Z"/></g><g fill="#0a1422" stroke="#c9d3df" stroke-opacity="0.3" stroke-width="1.3"><rect x="250" y="196" width="34" height="224" rx="3"/><rect x="300" y="244" width="26" height="176" rx="3"/><rect x="600" y="220" width="30" height="200" rx="3"/></g><g stroke="#c9d3df" stroke-opacity="0.22" stroke-width="1"><line x1="250" y1="232" x2="284" y2="232"/><line x1="250" y1="272" x2="284" y2="272"/><line x1="250" y1="312" x2="284" y2="312"/><line x1="250" y1="352" x2="284" y2="352"/></g><g fill="none" stroke="#c89b4a" stroke-opacity="0.6" stroke-width="2.4" stroke-linecap="round"><path d="M168 420 L168 392 L470 392 L470 420"/><path d="M267 420 L267 404 L615 404 L615 420"/><path d="M313 420 L313 398 L360 398 L360 420"/></g><g fill="#e0bd72" opacity="0.85"><circle cx="470" cy="392" r="3.4"/><circle cx="168" cy="392" r="3.4"/><circle cx="615" cy="404" r="3.4"/><circle cx="360" cy="398" r="3"/></g><rect x="0" y="420" width="820" height="40" fill="#060d18"/><rect width="820" height="460" filter="url(#gr)" opacity="0.5"/></svg>