<svg xmlns="http://www.w3.org/2000/svg" viewBox="0 0 820 460" preserveAspectRatio="xMidYMid slice"><defs><filter id="gr"><feTurbulence type="fractalNoise" baseFrequency="0.9" numOctaves="2" stitchTiles="stitch" result="n"/><feColorMatrix in="n" type="saturate" values="0"/><feComponentTransfer><feFuncA type="linear" slope="0.05"/></feComponentTransfer></filter><linearGradient id="fbg" x1="0" y1="0" x2="1" y2="1"><stop offset="0" stop-color="#0c1626"/><stop offset="1" stop-color="#0a1320"/></linearGradient><radialGradient id="fglow" cx="0.7" cy="0.3" r="0.6"><stop offset="0" stop-color="#c89b4a" stop-opacity="0.22"/><stop offset="1" stop-color="#c89b4a" stop-opacity="0"/></radialGradient></defs><rect width="820" height="460" fill="url(#fbg)"/><rect width="820" height="460" fill="url(#fglow)"/><g stroke="#9fb0c4" stroke-opacity="0.08" stroke-width="1"><line x1="120" y1="60" x2="120" y2="400"/><line x1="200" y1="60" x2="200" y2="400"/><line x1="280" y1="60" x2="280" y2="400"/><line x1="360" y1="60" x2="360" y2="400"/><line x1="440" y1="60" x2="440" y2="400"/><line x1="520" y1="60" x2="520" y2="400"/><line x1="600" y1="60" x2="600" y2="400"/><line x1="680" y1="60" x2="680" y2="400"/><line x1="760" y1="60" x2="760" y2="400"/><line x1="100" y1="80" x2="800" y2="80" /><line x1="100" y1="144" x2="800" y2="144" /><line x1="100" y1="208" x2="800" y2="208" /><line x1="100" y1="272" x2="800" y2="272" /><line x1="100" y1="336" x2="800" y2="336" /><line x1="100" y1="400" x2="800" y2="400" /></g><g fill="#c9d3df" opacity="0.16"><rect x="70" y="120" width="250" height="14"/><rect x="60" y="106" width="270" height="12"/><rect x="80" y="138" width="26" height="240"/><rect x="130" y="138" width="26" height="240"/><rect x="180" y="138" width="26" height="240"/><rect x="230" y="138" width="26" height="240"/><rect x="280" y="138" width="26" height="240"/><rect x="60" y="378" width="270" height="14"/></g><polyline points="120,360 220,330 320,344 420,286 520,300 620,230 720,196" fill="none" stroke="#e0bd72" stroke-width="3" stroke-linecap="round" stroke-linejoin="round" opacity="0.9"/><g fill="#0a1422" stroke="#e0bd72" stroke-width="2"><circle cx="120" cy="360" r="4"/><circle cx="220" cy="330" r="4"/><circle cx="320" cy="344" r="4"/><circle cx="420" cy="286" r="4"/><circle cx="520" cy="300" r="4"/><circle cx="620" cy="230" r="4"/><circle cx="720" cy="196" r="4"/></g><g stroke="#9fb0c4" stroke-opacity="0.3" stroke-width="6"><line x1="470" y1="320" x2="470" y2="360"/><line x1="560" y1="300" x2="560" y2="350"/><line x1="650" y1="250" x2="650" y2="300"/></g><rect width="820" height="460" filter="url(#gr)" opacity="0.5"/></svg>