<svg xmlns="http://www.w3.org/2000/svg" viewBox="0 0 820 460" preserveAspectRatio="xMidYMid slice"><defs><filter id="gr"><feTurbulence type="fractalNoise" baseFrequency="0.9" numOctaves="2" stitchTiles="stitch" result="n"/><feColorMatrix in="n" type="saturate" values="0"/><feComponentTransfer><feFuncA type="linear" slope="0.05"/></feComponentTransfer></filter><linearGradient id="jsky" x1="0" y1="1" x2="0.4" y2="0"><stop offset="0" stop-color="#070f1a"/><stop offset="0.6" stop-color="#0e1f33"/><stop offset="1" stop-color="#12263e"/></linearGradient><radialGradient id="jsun" cx="0.78" cy="0.2" r="0.55"><stop offset="0" stop-color="#e0bd72" stop-opacity="0.5"/><stop offset="1" stop-color="#c89b4a" stop-opacity="0"/></radialGradient><linearGradient id="trail" x1="0" y1="1" x2="1" y2="0"><stop offset="0" stop-color="#e0bd72" stop-opacity="0"/><stop offset="1" stop-color="#e7c885" stop-opacity="0.85"/></linearGradient></defs><rect width="820" height="460" fill="url(#jsky)"/><rect width="820" height="460" fill="url(#jsun)"/><path d="M70 440 Q 360 380 470 250 T 560 150" fill="none" stroke="url(#trail)" stroke-width="9" stroke-linecap="round" opacity="0.8"/><path d="M70 440 Q 360 380 470 250 T 560 150" fill="none" stroke="#fff" stroke-opacity="0.18" stroke-width="2" stroke-linecap="round"/><g fill="#0a1422" stroke="#c9d3df" stroke-opacity="0.25" stroke-width="1" transform="translate(560,150) rotate(-34)"><path d="M-78 0 Q -86 -8 -70 -9 L 56 -7 Q 80 -7 92 0 Q 80 7 56 7 L -70 9 Q -86 8 -78 0 Z"/><path d="M-6 -6 L -54 -42 L -34 -42 L 22 -6 Z"/><path d="M-6 6 L -54 42 L -34 42 L 22 6 Z"/><path d="M-66 -5 L -86 -24 L -74 -24 L -56 -5 Z"/></g><g fill="#e0bd72" opacity="0.7"><circle cx="120" cy="436" r="2.4"/><circle cx="172" cy="426" r="2.2"/><circle cx="226" cy="414" r="2"/></g><rect width="820" height="460" filter="url(#gr)" opacity="0.5"/></svg>