<svg xmlns="http://www.w3.org/2000/svg" viewBox="0 0 1600 760" preserveAspectRatio="xMidYMid slice"><defs><filter id="gr"><feTurbulence type="fractalNoise" baseFrequency="0.9" numOctaves="2" stitchTiles="stitch" result="n"/><feColorMatrix in="n" type="saturate" values="0"/><feComponentTransfer><feFuncA type="linear" slope="0.05"/></feComponentTransfer></filter><linearGradient id="hbg" x1="0" y1="0" x2="1" y2="1"><stop offset="0" stop-color="#080d16"/><stop offset="0.5" stop-color="#0a1322"/><stop offset="1" stop-color="#0c1a2e"/></linearGradient><radialGradient id="hg1" cx="0.82" cy="0.12" r="0.6"><stop offset="0" stop-color="#c89b4a" stop-opacity="0.30"/><stop offset="1" stop-color="#c89b4a" stop-opacity="0"/></radialGradient><radialGradient id="hg2" cx="0.1" cy="0.5" r="0.6"><stop offset="0" stop-color="#1f3f6b" stop-opacity="0.35"/><stop offset="1" stop-color="#1f3f6b" stop-opacity="0"/></radialGradient><linearGradient id="arc" x1="0" y1="0" x2="1" y2="0"><stop offset="0" stop-color="#c89b4a" stop-opacity="0"/><stop offset="0.5" stop-color="#e0bd72" stop-opacity="0.55"/><stop offset="1" stop-color="#c89b4a" stop-opacity="0"/></linearGradient></defs><rect width="1600" height="760" fill="url(#hbg)"/><rect width="1600" height="760" fill="url(#hg2)"/><rect width="1600" height="760" fill="url(#hg1)"/><g fill="none" stroke="url(#arc)" stroke-width="1.4"><path d="M120 560 Q 560 300 980 420 T 1520 200"/><path d="M80 420 Q 460 520 820 360 T 1540 420"/><path d="M200 640 Q 640 440 1040 520 T 1500 320"/><path d="M60 300 Q 520 180 900 300 T 1500 140"/></g><g fill="none" stroke="#9fb0c4" stroke-opacity="0.1" stroke-width="1"><path d="M100 500 Q 560 360 1100 460 T 1560 300"/><path d="M120 360 Q 600 460 1080 380 T 1560 460"/></g><g><circle cx="120" cy="560" r="14" fill="#e0bd72" opacity="0.10"/><circle cx="120" cy="560" r="3.4" fill="#e7c885"/><circle cx="980" cy="420" r="14" fill="#e0bd72" opacity="0.10"/><circle cx="980" cy="420" r="3.4" fill="#e7c885"/><circle cx="1520" cy="200" r="14" fill="#e0bd72" opacity="0.10"/><circle cx="1520" cy="200" r="3.4" fill="#e7c885"/><circle cx="820" cy="360" r="14" fill="#e0bd72" opacity="0.10"/><circle cx="820" cy="360" r="3.4" fill="#e7c885"/><circle cx="900" cy="300" r="14" fill="#e0bd72" opacity="0.10"/><circle cx="900" cy="300" r="3.4" fill="#e7c885"/><circle cx="1040" cy="520" r="14" fill="#e0bd72" opacity="0.10"/><circle cx="1040" cy="520" r="3.4" fill="#e7c885"/><circle cx="1500" cy="320" r="14" fill="#e0bd72" opacity="0.10"/><circle cx="1500" cy="320" r="3.4" fill="#e7c885"/><circle cx="560" cy="300" r="14" fill="#e0bd72" opacity="0.10"/><circle cx="560" cy="300" r="3.4" fill="#e7c885"/></g><rect width="1600" height="760" filter="url(#gr)" opacity="0.5"/></svg>