<svg xmlns="http://www.w3.org/2000/svg" viewBox="0 0 512 512" role="img" aria-labelledby="title desc">
  <title id="title">VialWise GLP Companion icon</title>
  <desc id="desc">A premium teal and blue VialWise app icon with a vial, check mark and GLP label.</desc>
  <defs>
    <linearGradient id="bg" x1="72" y1="58" x2="448" y2="456" gradientUnits="userSpaceOnUse">
      <stop stop-color="#0f766e"/>
      <stop offset=".52" stop-color="#3aa78e"/>
      <stop offset="1" stop-color="#315c8c"/>
    </linearGradient>
    <linearGradient id="glass" x1="160" y1="122" x2="300" y2="340" gradientUnits="userSpaceOnUse">
      <stop stop-color="#f7fcff"/>
      <stop offset="1" stop-color="#cdebf2"/>
    </linearGradient>
    <filter id="shadow" x="-20%" y="-20%" width="140%" height="150%" color-interpolation-filters="sRGB">
      <feDropShadow dx="0" dy="18" stdDeviation="18" flood-color="#102027" flood-opacity=".24"/>
    </filter>
  </defs>
  <rect width="512" height="512" rx="118" fill="url(#bg)"/>
  <path d="M95 314c56 66 124 97 205 92 48-3 88-18 120-44" fill="none" stroke="#d7f4ef" stroke-width="24" stroke-linecap="round" opacity=".72"/>
  <g filter="url(#shadow)">
    <path d="M176 151h100v32l-13 18v147c0 22-18 40-40 40h-6c-22 0-40-18-40-40V201l-14-18v-32h13z" fill="url(#glass)" stroke="#0b5361" stroke-width="9"/>
    <path d="M166 124h108c12 0 22 10 22 22v16H144v-16c0-12 10-22 22-22z" fill="#dcebf0" stroke="#0b5361" stroke-width="9"/>
    <path d="M181 248h77v58h-77z" fill="#fff" opacity=".92"/>
    <text x="219" y="286" text-anchor="middle" font-family="Arial, Helvetica, sans-serif" font-size="36" font-weight="900" fill="#0b5361">GLP</text>
  </g>
  <path d="M154 301l67 73L366 174" fill="none" stroke="#ffffff" stroke-width="34" stroke-linecap="round" stroke-linejoin="round"/>
  <path d="M154 301l67 73L366 174" fill="none" stroke="#083c56" stroke-width="16" stroke-linecap="round" stroke-linejoin="round" opacity=".72"/>
  <text x="256" y="452" text-anchor="middle" font-family="Arial, Helvetica, sans-serif" font-size="54" font-weight="900" fill="#ffffff">VW</text>
</svg>
