<svg xmlns="http://www.w3.org/2000/svg" viewBox="0 0 891.2 275.4" role="img" aria-label="PETRAIR SA">
  <defs>
    <linearGradient id="airGrad" gradientUnits="userSpaceOnUse" x1="3186" y1="0" x2="5195" y2="0">
      <stop offset="0" stop-color="#2f4a73"/>
      <stop offset="0.45" stop-color="#3f6699"/>
      <stop offset="1" stop-color="#5688c2"/>
    </linearGradient>
  </defs>

  <!-- Wordmark: PETR (navy) + AIR (gradient) -->
  <g transform="translate(30,142.0) scale(0.16,-0.16)">
      <path d="M105 0V700H378Q514 700 592.0 635.0Q670 570 670 456Q670 342 592.0 277.0Q514 212 378 212H205V0ZM205 299H375Q471 299 520.5 340.0Q570 381 570 456Q570 531 520.5 572.0Q471 613 375 613H205Z" transform="translate(0,0)" fill="#1d2b4d"/>
      <path d="M105 0V700H599V613H205V398H556V313H205V87H613V0Z" transform="translate(842,0)" fill="#1d2b4d"/>
      <path d="M244 0V613H4V700H583V613H343V0Z" transform="translate(1632,0)" fill="#1d2b4d"/>
      <path d="M105 0V700H378Q514 700 592.0 635.0Q670 570 670 456Q670 374 630.0 317.5Q590 261 516 235L682 0H573L422 215Q401 213 378 213H205V0ZM205 298H375Q471 298 520.5 339.5Q570 381 570 456Q570 531 520.5 572.0Q471 613 375 613H205Z" transform="translate(2339,0)" fill="#1d2b4d"/>
      <path d="M-1 0 316 700H415L733 0H628L551 175H179L102 0ZM214 255H516L365 598Z" transform="translate(3186,0)" fill="url(#airGrad)"/>
      <path d="M105 0V700H205V0Z" transform="translate(4038,0)" fill="url(#airGrad)"/>
      <path d="M105 0V700H378Q514 700 592.0 635.0Q670 570 670 456Q670 374 630.0 317.5Q590 261 516 235L682 0H573L422 215Q401 213 378 213H205V0ZM205 298H375Q471 298 520.5 339.5Q570 381 570 456Q570 531 520.5 572.0Q471 613 375 613H205Z" transform="translate(4468,0)" fill="url(#airGrad)"/>
  </g>

  <!-- divider lines -->
  <line x1="30" y1="210.7" x2="340.6" y2="210.7" stroke="#9a9aa0" stroke-width="1"/>
  <line x1="550.6" y1="210.7" x2="861.2" y2="210.7" stroke="#9a9aa0" stroke-width="1"/>

  <!-- SA -->
  <g transform="translate(368.6,245.4) scale(0.0992,-0.0992)">
        <path d="M309 -8Q229 -8 156.0 16.5Q83 41 41 80L78 158Q117 123 179.5 100.0Q242 77 309 77Q399 77 440.5 108.0Q482 139 482 185Q482 221 459.0 243.0Q436 265 398.0 278.5Q360 292 315.0 302.0Q270 312 224.5 325.0Q179 338 141.5 359.5Q104 381 81.0 416.5Q58 452 58 508Q58 562 86.5 607.5Q115 653 174.5 680.5Q234 708 326 708Q388 708 447.5 692.0Q507 676 551 646L518 566Q473 595 422.5 609.0Q372 623 326 623Q237 623 196.5 590.5Q156 558 156 512Q156 475 179.0 453.0Q202 431 240.0 418.0Q278 405 323.0 394.5Q368 384 413.5 371.0Q459 358 496.5 337.0Q534 316 557.0 281.0Q580 246 580 191Q580 138 551.0 92.5Q522 47 461.5 19.5Q401 -8 309 -8Z" transform="translate(0,0)" fill="#8a8a8a"/>
        <path d="M-1 0 316 700H415L733 0H628L551 175H179L102 0ZM214 255H516L365 598Z" transform="translate(821,0)" fill="#8a8a8a"/>
  </g>
</svg>